<svg width="18" height="18" viewBox="0 0 18 18" fill="none" xmlns="http://www.w3.org/2000/svg">
<path fill-rule="evenodd" clip-rule="evenodd" d="M5.66675 0.666504C6.12699 0.666504 6.50008 1.0396 6.50008 1.49984V2.33317H11.5001V1.49984C11.5001 1.0396 11.8732 0.666504 12.3334 0.666504C12.7937 0.666504 13.1667 1.0396 13.1667 1.49984V2.33317H14.8334C16.2141 2.33317 17.3334 3.45246 17.3334 4.83317V14.8332C17.3334 16.2139 16.2141 17.3332 14.8334 17.3332H3.16675C1.78604 17.3332 0.666748 16.2139 0.666748 14.8332V4.83317C0.666748 3.45246 1.78604 2.33317 3.16675 2.33317H4.83342V1.49984C4.83342 1.0396 5.20651 0.666504 5.66675 0.666504ZM4.83342 3.99984H3.16675C2.70651 3.99984 2.33341 4.37293 2.33341 4.83317V14.8332C2.33341 15.2934 2.70651 15.6665 3.16675 15.6665H14.8334C15.2937 15.6665 15.6667 15.2934 15.6667 14.8332V4.83317C15.6667 4.37293 15.2937 3.99984 14.8334 3.99984H13.1667V4.83317C13.1667 5.29341 12.7937 5.6665 12.3334 5.6665C11.8732 5.6665 11.5001 5.29341 11.5001 4.83317V3.99984H6.50008V4.83317C6.50008 5.29341 6.12699 5.6665 5.66675 5.6665C5.20651 5.6665 4.83342 5.29341 4.83342 4.83317V3.99984ZM4.00008 8.1665C4.00008 7.70627 4.37318 7.33317 4.83342 7.33317H13.1667C13.627 7.33317 14.0001 7.70627 14.0001 8.1665C14.0001 8.62674 13.627 8.99984 13.1667 8.99984H4.83342C4.37318 8.99984 4.00008 8.62674 4.00008 8.1665Z" fill="#9CA3AF"/>
</svg>
