<svg width="12" height="14" viewBox="0 0 12 14" fill="none" xmlns="http://www.w3.org/2000/svg">
  <path fill-rule="evenodd" clip-rule="evenodd" d="M11.8047 3.19518C12.0651 3.45553 12.0651 3.87764 11.8047 4.13799L9.13807 6.80466C8.87772 7.06501 8.45561 7.06501 8.19526 6.80466C7.93491 6.54431 7.93491 6.1222 8.19526 5.86185L9.72386 4.33325L3.33333 4.33325C2.96514 4.33325 2.66667 4.03477 2.66667 3.66658C2.66667 3.29839 2.96514 2.99992 3.33333 2.99992L9.72386 2.99992L8.19526 1.47132C7.93491 1.21097 7.93491 0.788863 8.19526 0.528514C8.45561 0.268164 8.87772 0.268164 9.13807 0.528514L11.8047 3.19518ZM2.27614 9.66658L8.66667 9.66658C9.03486 9.66658 9.33333 9.96506 9.33333 10.3333C9.33333 10.7014 9.03486 10.9999 8.66667 10.9999L2.27614 10.9999L3.80474 12.5285C4.06509 12.7889 4.06509 13.211 3.80474 13.4713C3.54439 13.7317 3.12228 13.7317 2.86193 13.4713L0.195261 10.8047C-0.0650887 10.5443 -0.0650887 10.1222 0.195261 9.86185L2.86193 7.19518C3.12228 6.93483 3.54439 6.93483 3.80474 7.19518C4.06509 7.45553 4.06509 7.87764 3.80474 8.13799L2.27614 9.66658Z" fill="#6B7280"/>
</svg>
