<svg width="14" height="14" viewBox="0 0 14 14" fill="none" xmlns="http://www.w3.org/2000/svg">
  <path fill-rule="evenodd" clip-rule="evenodd" d="M11.2344 0.375803C11.4945 0.473434 11.6668 0.722129 11.6668 0.999949V3.08396C12.817 3.37999 13.6668 4.42406 13.6668 5.66662C13.6668 6.90917 12.817 7.95324 11.6668 8.24927V10.3333C11.6668 10.6111 11.4945 10.8598 11.2344 10.9574C10.9743 11.0551 10.681 10.9812 10.4982 10.772C10.0895 10.3043 9.36578 9.85554 8.3726 9.52421C7.95181 9.38383 7.49139 9.26755 7.00016 9.18047V11.8267C7.00016 12.8429 6.17642 13.6666 5.16028 13.6666C4.38272 13.6666 3.68911 13.1778 3.42759 12.4456L3.42598 12.441L2.08587 8.60174C1.04338 8.0391 0.333496 6.9364 0.333496 5.66661C0.333496 3.82567 1.82588 2.33328 3.66682 2.33328H4.88822C5.35767 2.33328 5.81362 2.30778 6.25081 2.25982C6.25658 2.2591 6.26236 2.25846 6.26817 2.2579C7.03763 2.17234 7.74867 2.01717 8.3726 1.80902C9.36578 1.47769 10.0895 1.02893 10.4982 0.561276C10.681 0.352075 10.9743 0.278172 11.2344 0.375803ZM5.66683 3.64519C5.41077 3.65937 5.15098 3.66662 4.88822 3.66662H3.66682C2.56226 3.66662 1.66683 4.56204 1.66683 5.66661C1.66683 6.49274 2.16785 7.20337 2.88528 7.50833C3.1245 7.61002 3.38819 7.66661 3.66682 7.66661L4.88822 7.66662C5.15098 7.66662 5.41077 7.67386 5.66683 7.68804V3.64519ZM7.00016 7.82863V3.5046C7.6389 3.40385 8.24175 3.25824 8.79454 3.07383C9.35435 2.88708 9.87513 2.65631 10.3335 2.38381V8.94942C9.87513 8.67692 9.35435 8.44615 8.79454 8.2594C8.24175 8.07499 7.6389 7.92938 7.00016 7.82863ZM11.6668 6.82157C12.0654 6.59103 12.3335 6.16014 12.3335 5.66662C12.3335 5.17309 12.0654 4.7422 11.6668 4.51166V6.82157ZM5.66683 9.02363C5.41219 9.00802 5.15234 8.99995 4.88822 8.99995L3.66681 8.99994C3.65688 8.99994 3.64696 8.9999 3.63704 8.99981L4.68325 11.9971C4.68346 11.9977 4.68367 11.9983 4.68389 11.9989C4.75638 12.1995 4.94684 12.3333 5.16028 12.3333C5.44004 12.3333 5.66683 12.1065 5.66683 11.8267V9.02363Z" fill="#6B7280"/>
</svg>
